<?xml version="1.0" encoding="iso-8859-1"?><!-- Generator: Adobe Illustrator 22.1.0, SVG Export Plug-In . SVG Version: 6.00 Build 0)  --><svg xmlns="http://www.w3.org/2000/svg" xmlns:xlink="http://www.w3.org/1999/xlink" viewBox="0 0 100 100" width="100px" height="100px"><circle style="fill:#EE3E54;" cx="13" cy="29" r="2"/><circle style="fill:#F1BC19;" cx="77" cy="13" r="1"/><circle style="fill:#FCE0A2;" cx="50" cy="50" r="37"/><circle style="fill:#F1BC19;" cx="83" cy="15" r="4"/><circle style="fill:#EE3E54;" cx="87" cy="24" r="2"/><circle style="fill:#FBCD59;" cx="81" cy="76" r="2"/><circle style="fill:#FBCD59;" cx="15" cy="63" r="4"/><circle style="fill:#EE3E54;" cx="25" cy="87" r="2"/><circle style="fill:#FFFFFF;" cx="18.5" cy="53.5" r="2.5"/><circle style="fill:#F1BC19;" cx="21" cy="67" r="1"/><circle style="fill:#FFFFFF;" cx="80" cy="34" r="1"/><path style="fill:#00A5A5;" d="M58.966,32.111c-3.797-5.423-11.271-6.74-16.693-2.943c-5.423,3.797-6.74,11.271-2.943,16.693  c3.797,5.422,11.271,6.74,16.693,2.943C61.445,45.008,62.763,37.534,58.966,32.111z M47.999,35.625c-0.629,0-5.37,0-6,0  c-0.897,0-1.625-0.728-1.625-1.625s0.728-1.625,1.625-1.625c0.63,0,5.371,0,6,0c0.897,0,1.625,0.728,1.625,1.625  S48.896,35.625,47.999,35.625z"/><path style="fill:#CE942B;" d="M59.827,45.531c-0.066,0.046-7.896,5.529-8.182,5.729c-0.678,0.475-0.843,1.409-0.368,2.087  s1.409,0.843,2.087,0.368c0.145-0.101,1.514-1.06,2.046-1.432l3.032,4.331l0.119,0.169l-0.036,0.204l-0.209,1.187l1.595,0.281  l0.492,0.087l-0.087,0.492l-0.281,1.595l1.595,0.281l0.492,0.087l-0.087,0.492l-0.281,1.595l1.595,0.281l0.492,0.087l-0.087,0.492  l-0.281,1.595l5.024,1.96l0.003-0.003l0.006-0.013l-0.006-5.057c0-0.103-0.031-0.202-0.09-0.286l-8.907-12.72  c0,0,1.775-1.243,2.046-1.432c0.678-0.475,0.843-1.409,0.368-2.087C61.439,45.221,60.505,45.056,59.827,45.531z"/><path style="fill:#E2AD17;" d="M59.827,45.531c-0.029,0.021-2.086,1.46-3.477,2.435L68.501,65.32l-0.004-2.895  c0-0.103-0.031-0.202-0.09-0.286l-8.907-12.72c0,0,1.775-1.243,2.046-1.432c0.678-0.475,0.843-1.409,0.368-2.087  C61.439,45.221,60.505,45.056,59.827,45.531z"/><path style="fill:#472B29;" d="M59.541,45.122c-0.299,0.21-7.971,5.581-8.182,5.729c-0.904,0.633-1.123,1.878-0.491,2.782  c0.633,0.904,1.878,1.123,2.782,0.491c0.167-0.117,1.636-1.146,1.636-1.146l2.746,3.922l-0.209,1.187  c-0.048,0.272,0.133,0.531,0.405,0.578l1.595,0.281l-0.281,1.595c-0.048,0.272,0.133,0.531,0.405,0.578l1.595,0.281l-0.281,1.595  c-0.048,0.272,0.133,0.531,0.405,0.578l1.595,0.281l-0.281,1.595c-0.041,0.234,0.088,0.466,0.31,0.552l5.033,1.963  c0.162,0.063,0.336,0.036,0.468-0.056c0.009-0.006,0.012-0.019,0.02-0.026c0.057-0.047,0.103-0.104,0.135-0.172  c0.006-0.012,0.018-0.017,0.023-0.029c0.028-0.073,0.034-0.148,0.029-0.221l-0.001-5.037c0-0.205-0.063-0.405-0.181-0.573  l-8.62-12.311c0.229-0.16,1.343-0.941,1.636-1.146c0.904-0.633,1.123-1.878,0.491-2.782C61.69,44.708,60.445,44.489,59.541,45.122z   M61.26,47.576l-1.636,1.146c-0.452,0.316-0.562,0.939-0.245,1.391l8.62,12.311l0.001,4.343l-3.965-1.547l0.297-1.683  c0.048-0.272-0.133-0.531-0.405-0.578l-1.595-0.281l0.281-1.595c0.048-0.272-0.133-0.531-0.405-0.578l-1.595-0.281l0.281-1.595  c0.048-0.272-0.133-0.531-0.405-0.578l-1.595-0.281l0.159-0.899c0.023-0.13-0.007-0.265-0.083-0.373l-2.864-4.091  c-0.316-0.452-0.939-0.562-1.391-0.245l-1.636,1.146c-0.451,0.316-1.075,0.206-1.391-0.245s-0.206-1.075,0.245-1.391  c0.082-0.058,8.012-5.61,8.182-5.729c0.451-0.316,1.075-0.206,1.391,0.245S61.711,47.26,61.26,47.576z"/><path style="fill:#472B29;" d="M61.649,55.784c-0.079,0-0.156-0.037-0.205-0.106l-4.297-6.137c-0.08-0.113-0.052-0.269,0.061-0.348  c0.113-0.08,0.269-0.052,0.348,0.061l4.297,6.137c0.08,0.113,0.052,0.269-0.061,0.348C61.749,55.77,61.699,55.784,61.649,55.784z"/><path style="fill:#472B29;" d="M63.941,59.057c-0.079,0-0.156-0.037-0.205-0.106l-0.859-1.227c-0.08-0.113-0.052-0.269,0.061-0.348  c0.113-0.08,0.269-0.052,0.348,0.061l0.859,1.227c0.08,0.113,0.052,0.269-0.061,0.348C64.041,59.042,63.991,59.057,63.941,59.057z"/><path style="fill:#472B29;" d="M66.233,62.33c-0.079,0-0.156-0.037-0.205-0.106l-0.859-1.227c-0.08-0.113-0.052-0.269,0.061-0.348  c0.113-0.079,0.269-0.053,0.348,0.061l0.859,1.227c0.08,0.113,0.052,0.269-0.061,0.348C66.333,62.315,66.283,62.33,66.233,62.33z"/><path style="fill:#472B29;" d="M51.931,51.67l8.184-5.73c2.72-4.294,2.767-9.977-0.33-14.401c-4.113-5.874-12.21-7.302-18.084-3.189  s-7.302,12.21-3.189,18.084C41.609,50.858,46.965,52.757,51.931,51.67z M42.502,29.495c5.233-3.664,12.472-2.388,16.137,2.845  c3.664,5.233,2.388,12.472-2.845,16.137s-12.472,2.388-16.137-2.845C35.992,40.398,37.269,33.159,42.502,29.495z"/><rect x="52.249" y="50.625" style="fill:#472B29;" width="0.25" height="3.375"/><rect x="52.874" y="50.125" style="fill:#472B29;" width="0.25" height="3.75"/><rect x="53.499" y="49.75" style="fill:#472B29;" width="0.25" height="3.375"/><path style="fill:#472B29;" d="M54.249,52.125c-0.069,0-0.125-0.056-0.125-0.125v-2.75c0-0.069,0.056-0.125,0.125-0.125  s0.125,0.056,0.125,0.125V52C54.374,52.069,54.317,52.125,54.249,52.125z"/><path style="fill:#472B29;" d="M54.874,51.125c-0.069,0-0.125-0.056-0.125-0.125l0.001-2.125c0-0.069,0.056-0.125,0.125-0.125  S55,48.806,55,48.875L54.999,51C54.999,51.069,54.942,51.125,54.874,51.125z"/><path style="fill:#EE3E54;" d="M45,28c-6.627,0-12,5.373-12,12c0,6.627,5.373,12,12,12s12-5.373,12-12C57,33.373,51.627,28,45,28z   M48,35.625c-0.629,0-5.37,0-6,0c-0.897,0-1.625-0.728-1.625-1.625s0.728-1.625,1.625-1.625c0.63,0,5.371,0,6,0  c0.897,0,1.625,0.728,1.625,1.625S48.897,35.625,48,35.625z"/><path style="fill:#DB2E4C;" d="M47.75,47.75h-5.5c-2.209,0-4-1.791-4-4v-1.5c0-2.209,1.791-4,4-4h5.5c2.209,0,4,1.791,4,4v1.5  C51.75,45.959,49.959,47.75,47.75,47.75z"/><path style="fill:#F1BC19;" d="M50,51.5c-0.081,0-9.65,0-10,0c-0.828,0-1.5,0.672-1.5,1.5s0.672,1.5,1.5,1.5c0.177,0,1.85,0,2.5,0  v5.293V60l-0.146,0.146L41.5,61l1.146,1.146L43,62.5l-0.354,0.354L41.5,64l1.146,1.146L43,65.5l-0.354,0.354L41.5,67l1.146,1.146  L43,68.5l-0.354,0.354L41.5,70l2.995,4.492l0.004,0l0.012-0.007l2.899-4.151c0.059-0.084,0.09-0.184,0.09-0.287V54.5  c0,0,2.169,0,2.5,0c0.828,0,1.5-0.672,1.5-1.5S50.828,51.5,50,51.5z"/><path style="fill:#FBCD59;" d="M50,51.5c-0.036,0-2.549,0-4.25,0v21.21l1.66-2.377c0.059-0.084,0.09-0.184,0.09-0.287V54.5  c0,0,2.169,0,2.5,0c0.828,0,1.5-0.672,1.5-1.5S50.828,51.5,50,51.5z"/><path style="fill:#472B29;" d="M50,51c-0.366,0-9.742,0-10,0c-1.105,0-2,0.895-2,2c0,1.105,0.895,2,2,2c0.204,0,2,0,2,0v4.793  l-0.854,0.854c-0.195,0.195-0.195,0.512,0,0.707l1.146,1.146l-1.146,1.146c-0.195,0.195-0.195,0.512,0,0.707l1.146,1.146  l-1.146,1.146c-0.195,0.195-0.195,0.512,0,0.707l1.146,1.146l-1.146,1.146c-0.168,0.168-0.195,0.433-0.063,0.631l3,4.5  C44.18,74.922,44.339,75,44.5,75c0.011,0,0.021-0.009,0.031-0.01c0.073-0.006,0.144-0.026,0.21-0.064  c0.011-0.006,0.025-0.003,0.036-0.011c0.065-0.044,0.113-0.101,0.15-0.165l2.892-4.131C47.937,70.452,48,70.252,48,70.047V55  c0.28,0,1.642,0,2,0c1.105,0,2-0.895,2-2C52,51.895,51.105,51,50,51z M50,54h-2c-0.552,0-1,0.448-1,1v15.047l-2.493,3.562  l-2.363-3.545l1.21-1.21c0.195-0.195,0.195-0.512,0-0.707L42.207,67l1.146-1.146c0.195-0.195,0.195-0.512,0-0.707L42.207,64  l1.146-1.146c0.195-0.195,0.195-0.512,0-0.707L42.207,61l0.646-0.646C42.947,60.26,43,60.133,43,60v-5c0-0.552-0.448-1-1-1h-2  c-0.551,0-1-0.449-1-1s0.449-1,1-1c0.101,0,9.792,0,10,0c0.551,0,1,0.449,1,1S50.551,54,50,54z"/><path style="fill:#472B29;" d="M45.75,61c-0.138,0-0.25-0.112-0.25-0.25v-7.5c0-0.138,0.112-0.25,0.25-0.25S46,53.112,46,53.25v7.5  C46,60.888,45.888,61,45.75,61z"/><path style="fill:#472B29;" d="M45.75,65c-0.138,0-0.25-0.112-0.25-0.25v-1.5c0-0.138,0.112-0.25,0.25-0.25S46,63.112,46,63.25v1.5  C46,64.888,45.888,65,45.75,65z"/><path style="fill:#472B29;" d="M45.75,69c-0.138,0-0.25-0.112-0.25-0.25v-1.5c0-0.138,0.112-0.25,0.25-0.25S46,67.112,46,67.25v1.5  C46,68.888,45.888,69,45.75,69z"/><path style="fill:#472B29;" d="M39.999,52h10.002C54.698,50.04,58,45.407,58,40c0-7.18-5.82-13-13-13s-13,5.82-13,13  C32,45.407,35.302,50.04,39.999,52z M45,28.4c6.396,0,11.6,5.204,11.6,11.6c0,6.396-5.204,11.6-11.6,11.6S33.4,46.396,33.4,40  C33.4,33.604,38.604,28.4,45,28.4z"/><path style="fill:#472B29;" d="M48,36h-6c-1.103,0-2-0.897-2-2s0.897-2,2-2h6c1.103,0,2,0.897,2,2S49.103,36,48,36z M42,32.75  c-0.689,0-1.25,0.561-1.25,1.25s0.561,1.25,1.25,1.25h6c0.689,0,1.25-0.561,1.25-1.25s-0.561-1.25-1.25-1.25H42z"/><path style="fill:#472B29;" d="M51.195,46c-0.043,0-0.086-0.011-0.126-0.034c-0.119-0.069-0.16-0.222-0.09-0.342  C51.325,45.031,51.5,44.4,51.5,43.75v-1.5c0-0.138,0.112-0.25,0.25-0.25S52,42.112,52,42.25v1.5c0,0.74-0.198,1.455-0.589,2.126  C51.365,45.956,51.281,46,51.195,46z"/><path style="fill:#472B29;" d="M47.75,48h-5.5C39.907,48,38,46.093,38,43.75v-1.5c0-2.343,1.907-4.25,4.25-4.25h5.5  c1.736,0,3.281,1.042,3.935,2.656c0.052,0.128-0.01,0.273-0.138,0.326c-0.128,0.05-0.274-0.01-0.326-0.138  C50.645,39.42,49.282,38.5,47.75,38.5h-5.5c-2.068,0-3.75,1.682-3.75,3.75v1.5c0,2.068,1.682,3.75,3.75,3.75h5.5  c0.138,0,0.25,0.112,0.25,0.25S47.888,48,47.75,48z"/><path style="fill:#472B29;" d="M45.499,34c1.244,0,2.371-0.562,3.185-1.469c-0.209-0.098-0.439-0.156-0.685-0.156  c-0.083,0-0.165,0-0.246,0c-0.629,0.541-1.404,0.875-2.254,0.875c-2.068,0-3.75-1.907-3.75-4.25s1.682-4.25,3.75-4.25  c1.05,0,1.998,0.495,2.68,1.286c0.299-0.023,0.599-0.034,0.901-0.035C48.258,24.793,46.967,24,45.499,24c-2.485,0-4.5,2.239-4.5,5  S43.013,34,45.499,34z"/></svg>